<?xml version="1.0" encoding="utf-8"?>
<!-- Generator: Adobe Illustrator 24.1.1, SVG Export Plug-In . SVG Version: 6.00 Build 0)  -->
<svg version="1.1" id="Layer_1" xmlns="http://www.w3.org/2000/svg" xmlns:xlink="http://www.w3.org/1999/xlink" x="0px" y="0px"
	 viewBox="0 0 1200 1200" style="enable-background:new 0 0 1200 1200;" xml:space="preserve">
<style type="text/css">
	.st0{fill:none;}
	.st1{fill:#FFFFFF;}
	.st2{fill:#EEA6A8;}
	.st3{fill:#CBEAE6;}
	.st4{fill:#E9C787;}
	.st5{fill:#C2C2C2;}
	.st6{fill:url(#SVGID_1_);}
</style>
<pattern  width="1235" height="1223" patternUnits="userSpaceOnUse" id="New_Pattern_Swatch_7" viewBox="0 -1225.4 1235 1223" style="overflow:visible;">
	<g>
		<rect y="-1225.4" class="st0" width="1235" height="1223"/>
		<rect y="-1225.4" class="st1" width="1235" height="1223"/>
		<g>
			<path class="st2" d="M824.55-313.64c0,6.89-5.59,12.47-12.47,12.47c-6.89,0-12.47-5.58-12.47-12.47
				c0-6.89,5.58-12.47,12.47-12.47C818.97-326.12,824.55-320.53,824.55-313.64z"/>
			<path class="st3" d="M228.52-148.57c-2.68-9.34,2.71-19.08,12.05-21.76c9.34-2.68,19.08,2.71,21.76,12.05
				c2.68,9.34-2.71,19.08-12.05,21.76C240.95-133.83,231.2-139.23,228.52-148.57z"/>
			<path class="st4" d="M437.92-219.46c5.51-0.76,10.59,3.09,11.35,8.6c0.76,5.51-3.09,10.59-8.6,11.35
				c-5.51,0.76-10.59-3.09-11.35-8.6C428.56-213.62,432.41-218.7,437.92-219.46z"/>
			<path class="st2" d="M59.89-781.51c-4.54-5.18-4.02-13.06,1.16-17.6c5.18-4.54,13.06-4.02,17.6,1.16
				c4.54,5.18,4.02,13.06-1.16,17.6C72.31-775.81,64.43-776.33,59.89-781.51z"/>
			<path class="st2" d="M633.9-598.93c8.17,5.25,10.53,16.14,5.28,24.31c-5.25,8.17-16.14,10.54-24.31,5.28
				c-8.17-5.26-10.54-16.14-5.28-24.31C614.85-601.82,625.73-604.18,633.9-598.93z"/>
			<path class="st2" d="M1091.77-449.46c8.17,5.25,10.54,16.14,5.28,24.31c-5.25,8.17-16.14,10.54-24.31,5.28
				c-8.17-5.26-10.54-16.14-5.28-24.31C1072.72-452.35,1083.6-454.72,1091.77-449.46z"/>
			<path class="st4" d="M143.98-577.93c-3.64,4.2-10,4.66-14.21,1.01c-4.2-3.64-4.66-10-1.01-14.21c3.64-4.2,10-4.66,14.21-1.01
				C147.17-588.49,147.62-582.13,143.98-577.93z"/>
			<path class="st3" d="M1045.06-621.61c-6.82,0.97-13.13-3.78-14.1-10.6c-0.97-6.82,3.78-13.13,10.6-14.1
				c6.82-0.97,13.13,3.78,14.1,10.6C1056.62-628.89,1051.88-622.58,1045.06-621.61z"/>
			<path class="st3" d="M867.22-615.58c8.87-3.96,19.27,0.01,23.24,8.88c3.96,8.87-0.01,19.27-8.88,23.24
				c-8.87,3.96-19.27-0.01-23.24-8.88C854.38-601.22,858.35-611.62,867.22-615.58z"/>
			<path class="st5" d="M19.09-513.56c8.87-3.96,19.27,0.01,23.24,8.88c3.96,8.87-0.01,19.27-8.88,23.24
				c-8.87,3.96-19.27-0.01-23.24-8.88C6.24-499.19,10.22-509.59,19.09-513.56z"/>
			<path class="st5" d="M879.62-130.77c1.52,5.35-1.58,10.92-6.93,12.45c-5.35,1.53-10.92-1.58-12.45-6.93
				c-1.52-5.35,1.58-10.92,6.92-12.45C872.52-139.22,878.09-136.12,879.62-130.77z"/>
			<path class="st2" d="M458.84-1212.17c0-6.89,5.58-12.47,12.47-12.47c6.89,0,12.47,5.58,12.47,12.47
				c0,6.89-5.59,12.47-12.47,12.47C464.42-1199.69,458.84-1205.28,458.84-1212.17z"/>
			<path class="st5" d="M763.16-889.05c2.68,9.34-2.71,19.08-12.05,21.76c-9.34,2.68-19.08-2.71-21.76-12.05
				c-2.68-9.34,2.71-19.08,12.05-21.76C750.74-903.79,760.48-898.39,763.16-889.05z"/>
			<path class="st5" d="M811.99-1081.09c-5.51,0.76-10.59-3.09-11.35-8.6c-0.76-5.51,3.09-10.59,8.6-11.35
				c5.51-0.76,10.59,3.09,11.35,8.6C821.35-1086.93,817.5-1081.85,811.99-1081.09z"/>
			<path class="st5" d="M1137.68-762.45c-9.22,3.07-19.18-1.92-22.24-11.14c-3.07-9.22,1.92-19.18,11.14-22.24
				c9.22-3.07,19.18,1.92,22.24,11.14C1151.88-775.48,1146.89-765.52,1137.68-762.45z"/>
			<path class="st2" d="M100.49-231.54c-4.99,4.75-12.88,4.56-17.64-0.43c-4.75-4.99-4.56-12.88,0.43-17.64
				c4.99-4.75,12.88-4.56,17.64,0.43C105.67-244.19,105.48-236.29,100.49-231.54z"/>
			<path class="st5" d="M525.79-110.13c7.64-5.99,18.7-4.66,24.7,2.99c5.99,7.64,4.66,18.7-2.99,24.7
				c-7.65,5.99-18.7,4.66-24.7-2.99C516.8-93.08,518.14-104.14,525.79-110.13z"/>
			<path class="st2" d="M687.95-97.47c4.35,3.47,5.07,9.8,1.6,14.15c-3.47,4.35-9.8,5.07-14.15,1.6c-4.35-3.47-5.07-9.8-1.6-14.15
				C677.26-100.22,683.6-100.93,687.95-97.47z"/>
			<path class="st2" d="M799.54-1201.9c1.25,6.77-3.23,13.28-10.01,14.53c-6.78,1.25-13.28-3.23-14.53-10.01
				c-1.25-6.77,3.23-13.28,10.01-14.53C791.79-1213.16,798.3-1208.68,799.54-1201.9z"/>
			<path class="st4" d="M76.18-1162.7c-4.33-8.7-0.79-19.26,7.91-23.59c8.7-4.33,19.26-0.79,23.59,7.91
				c4.33,8.7,0.79,19.26-7.91,23.59C91.07-1150.46,80.51-1154.01,76.18-1162.7z"/>
			<path class="st4" d="M201.43-752.2c-4.33-8.7-0.79-19.26,7.91-23.59c8.7-4.33,19.26-0.79,23.59,7.91
				c4.33,8.7,0.79,19.26-7.91,23.59C216.32-739.96,205.76-743.5,201.43-752.2z"/>
			<path class="st4" d="M323.53-12.24c-4.33-8.7-0.79-19.26,7.91-23.59c8.7-4.33,19.26-0.79,23.59,7.91s0.79,19.26-7.91,23.59
				C338.42,0,327.86-3.54,323.53-12.24z"/>
			<path class="st3" d="M1195.07-680.62c-4.33-8.7-0.79-19.26,7.91-23.59c8.7-4.33,19.26-0.79,23.59,7.91
				c4.33,8.7,0.79,19.26-7.91,23.59C1209.95-668.39,1199.39-671.93,1195.07-680.62z"/>
			<path class="st4" d="M1125.43-999.67c5.28-1.75,10.98,1.12,12.72,6.4c1.74,5.28-1.12,10.98-6.4,12.72
				c-5.28,1.75-10.98-1.12-12.72-6.4C1117.28-992.23,1120.15-997.93,1125.43-999.67z"/>
			<path class="st2" d="M340.01-688.1c-6.88,0.29-12.7-5.06-12.98-11.95c-0.29-6.88,5.06-12.69,11.95-12.98
				c6.88-0.29,12.69,5.06,12.98,11.95C352.24-694.2,346.89-688.39,340.01-688.1z"/>
			<path class="st3" d="M32.42-112.98c9.22-3.07,19.18,1.92,22.24,11.14c3.07,9.22-1.92,19.18-11.14,22.24
				c-9.22,3.07-19.18-1.92-22.24-11.14C18.22-99.96,23.2-109.92,32.42-112.98z"/>
			<path class="st5" d="M66.93-951.69c0.99,5.47-2.65,10.71-8.12,11.7c-5.47,0.99-10.71-2.65-11.7-8.12
				c-0.99-5.47,2.65-10.71,8.12-11.7C60.71-960.8,65.95-957.16,66.93-951.69z"/>
			<path class="st4" d="M691.59-1103.41c0.99,5.47-2.65,10.71-8.12,11.7c-5.47,0.99-10.71-2.65-11.7-8.12
				c-0.99-5.47,2.65-10.71,8.12-11.7C685.36-1112.52,690.6-1108.88,691.59-1103.41z"/>
			<path class="st3" d="M144.04-375.94c-1.06,9.66-9.74,16.63-19.4,15.57c-9.66-1.06-16.63-9.74-15.57-19.4
				c1.06-9.66,9.74-16.63,19.4-15.57C138.12-394.28,145.09-385.6,144.04-375.94z"/>
			<path class="st5" d="M539.16-352.67c5.85-7.75,16.88-9.3,24.64-3.44c7.75,5.85,9.3,16.88,3.44,24.64
				c-5.85,7.75-16.88,9.3-24.64,3.44C534.85-333.89,533.31-344.92,539.16-352.67z"/>
			<path class="st2" d="M255.14-402.09c-3.33-6.03-1.13-13.62,4.9-16.95c6.03-3.33,13.62-1.13,16.95,4.9
				c3.33,6.03,1.13,13.62-4.9,16.95C266.06-393.87,258.47-396.06,255.14-402.09z"/>
			<path class="st3" d="M660.38-213.68c-3.33-6.03-1.13-13.62,4.9-16.95c6.03-3.33,13.62-1.13,16.95,4.9
				c3.33,6.03,1.13,13.62-4.9,16.95C671.3-205.46,663.71-207.65,660.38-213.68z"/>
			<path class="st2" d="M416.13-351.94c-4.46,3.33-10.77,2.41-14.09-2.05c-3.33-4.46-2.41-10.77,2.05-14.09
				c4.46-3.33,10.77-2.41,14.1,2.05C421.51-361.58,420.59-355.27,416.13-351.94z"/>
			<path class="st2" d="M297.05-1140.28c-1.32-6.76,3.09-13.31,9.85-14.63c6.76-1.32,13.31,3.09,14.63,9.85
				c1.32,6.76-3.09,13.31-9.85,14.63C304.92-1129.11,298.37-1133.52,297.05-1140.28z"/>
			
				<ellipse transform="matrix(0.777 -0.6295 0.6295 0.777 695.1398 415.19)" class="st4" cx="933.57" cy="-773.52" rx="17.59" ry="17.59"/>
			<path class="st5" d="M455.26-712.35c6.51-2.26,13.62,1.19,15.87,7.7c2.26,6.51-1.19,13.62-7.7,15.87s-13.62-1.19-15.87-7.7
				C445.3-702.99,448.75-710.1,455.26-712.35z"/>
			<path class="st3" d="M244.45-923.19c-7.94,5.59-18.92,3.68-24.51-4.26c-5.59-7.94-3.68-18.92,4.26-24.51
				c7.94-5.59,18.92-3.68,24.51,4.26C254.3-939.76,252.4-928.79,244.45-923.19z"/>
			<path class="st3" d="M1149.97-205.55c-9.71-0.05-17.55-7.97-17.49-17.69c0.05-9.71,7.97-17.55,17.69-17.49
				c9.71,0.05,17.55,7.97,17.49,17.69C1167.61-213.33,1159.69-205.49,1149.97-205.55z"/>
			<path class="st4" d="M932.39-492.22c5.66-3.93,13.43-2.54,17.36,3.12c3.93,5.66,2.54,13.43-3.12,17.36
				c-5.66,3.93-13.43,2.54-17.36-3.12C925.34-480.51,926.74-488.29,932.39-492.22z"/>
			<path class="st5" d="M1064.31-265.77c-3.77-4.09-3.51-10.46,0.58-14.23c4.09-3.77,10.46-3.51,14.23,0.58
				c3.77,4.09,3.51,10.46-0.58,14.23C1074.45-261.42,1068.08-261.68,1064.31-265.77z"/>
			<path class="st5" d="M664.4-414.71c-4.28,5.4-12.13,6.3-17.53,2.01c-5.39-4.28-6.29-12.13-2.01-17.53
				c4.28-5.39,12.13-6.29,17.53-2.01C667.79-427.95,668.69-420.11,664.4-414.71z"/>
			<path class="st2" d="M1065.72-106.37c3.71-8.98,13.99-13.25,22.97-9.55c8.98,3.71,13.25,13.99,9.55,22.97
				c-3.71,8.98-13.99,13.25-22.97,9.55C1066.29-87.11,1062.01-97.39,1065.72-106.37z"/>
			<path class="st5" d="M148.75-1049.03c-2.52-4.96-0.55-11.02,4.41-13.54c4.96-2.52,11.02-0.55,13.54,4.41
				c2.52,4.96,0.55,11.02-4.41,13.54C157.33-1042.09,151.27-1044.07,148.75-1049.03z"/>
			<path class="st5" d="M414.6-510.41c-4.42-8.65-1-19.25,7.65-23.67c8.65-4.42,19.25-1,23.67,7.65c4.42,8.65,1,19.25-7.65,23.67
				C429.62-498.33,419.03-501.76,414.6-510.41z"/>
			<path class="st5" d="M907.21-232.53c-4.42-8.65-1-19.25,7.65-23.67c8.65-4.42,19.25-1,23.67,7.65c4.42,8.65,1,19.25-7.65,23.67
				C922.23-220.45,911.63-223.88,907.21-232.53z"/>
			<path class="st3" d="M257.88-579.77c8.46-4.78,19.19-1.79,23.97,6.67c4.78,8.46,1.79,19.19-6.67,23.97
				c-8.46,4.78-19.19,1.79-23.97-6.67C246.44-564.26,249.42-574.99,257.88-579.77z"/>
			<path class="st5" d="M415.77-1037.49c-3.21,9.17-13.25,14-22.42,10.78c-9.17-3.21-14-13.25-10.78-22.42
				c3.21-9.17,13.25-14,22.42-10.78C414.15-1056.7,418.98-1046.66,415.77-1037.49z"/>
			<path class="st5" d="M742.8-723.57c5.92,7.71,4.46,18.75-3.24,24.66c-7.71,5.92-18.75,4.46-24.66-3.24
				c-5.92-7.71-4.46-18.75,3.24-24.66C725.84-732.73,736.89-731.28,742.8-723.57z"/>
			<path class="st2" d="M844.4-865.68c6.7-1.6,13.43,2.53,15.03,9.24c1.6,6.7-2.53,13.43-9.24,15.03c-6.7,1.6-13.43-2.53-15.03-9.24
				C833.56-857.35,837.7-864.08,844.4-865.68z"/>
			<path class="st3" d="M783.96-484.45c-4.12-3.74-4.42-10.11-0.67-14.23c3.74-4.12,10.11-4.42,14.23-0.67
				c4.12,3.74,4.42,10.11,0.67,14.23C794.45-481.01,788.08-480.71,783.96-484.45z"/>
			<path class="st4" d="M953.29-1141.2c-0.82-6.84,4.07-13.05,10.91-13.87c6.84-0.82,13.05,4.07,13.86,10.91
				c0.82,6.84-4.07,13.05-10.91,13.87C960.31-1129.47,954.1-1134.36,953.29-1141.2z"/>
			<path class="st5" d="M981.27-971.87c9.65-1.1,18.37,5.83,19.47,15.49c1.1,9.65-5.83,18.37-15.49,19.47
				c-9.65,1.1-18.37-5.83-19.47-15.49C964.69-962.05,971.62-970.77,981.27-971.87z"/>
			<path class="st4" d="M362.78-928.45c-5.15,4.58-13.03,4.11-17.61-1.04c-4.58-5.15-4.11-13.03,1.04-17.61
				c5.15-4.58,13.03-4.11,17.61,1.04C368.39-940.91,367.93-933.03,362.78-928.45z"/>
			<path class="st2" d="M527.88-915.71c-2.62,9.36-12.32,14.82-21.68,12.2c-9.36-2.61-14.82-12.32-12.21-21.68
				c2.62-9.36,12.32-14.82,21.68-12.2C525.03-934.77,530.49-925.06,527.88-915.71z"/>
			<path class="st4" d="M599.26-810.08c4.53,3.23,5.59,9.52,2.36,14.05c-3.23,4.53-9.52,5.58-14.05,2.36
				c-4.53-3.23-5.59-9.52-2.36-14.05C588.44-812.26,594.73-813.31,599.26-810.08z"/>
			<path class="st3" d="M1064.84-1169.57c-0.81-9.68,6.37-18.19,16.05-19c9.68-0.81,18.19,6.37,19,16.05s-6.37,18.19-16.05,19
				C1074.17-1152.71,1065.66-1159.89,1064.84-1169.57z"/>
			<path class="st3" d="M646.04-1182.5c-4.26,8.73-14.79,12.36-23.52,8.1c-8.73-4.26-12.36-14.79-8.1-23.52
				c4.26-8.73,14.79-12.36,23.52-8.1C646.67-1201.77,650.3-1191.24,646.04-1182.5z"/>
			<path class="st2" d="M901.56-1051.53c4.42,5.28,3.72,13.15-1.56,17.57s-13.15,3.72-17.57-1.56c-4.42-5.28-3.72-13.15,1.56-17.57
				C889.27-1057.51,897.14-1056.81,901.56-1051.53z"/>
			<path class="st5" d="M659.07-1011.06c3.74-4.12,10.11-4.43,14.23-0.69c4.12,3.74,4.43,10.11,0.69,14.23
				c-3.74,4.12-10.11,4.43-14.23,0.69C655.64-1000.57,655.33-1006.94,659.07-1011.06z"/>
			<path class="st5" d="M1170.27-1098.31c3.74-4.12,10.11-4.43,14.23-0.69c4.12,3.74,4.43,10.11,0.69,14.23
				c-3.74,4.12-10.11,4.43-14.23,0.69C1166.84-1087.83,1166.53-1094.2,1170.27-1098.31z"/>
		</g>
	</g>
</pattern>
<pattern  id="SVGID_1_" xlink:href="#New_Pattern_Swatch_7" patternTransform="matrix(0.9997 0 0 0.9997 -702.9787 -194.5342)">
</pattern>
<rect class="st6" width="1200" height="1200"/>
</svg>
